<svg width="64" height="64" viewBox="0 0 64 64" fill="none" xmlns="http://www.w3.org/2000/svg">
<path d="M63.361 21.857C63.361 9.778 49.634 0 32.681 0C15.729 0 2 9.778 2 21.857C2 33.924 15.729 63.689 32.681 63.689C49.634 63.688 63.361 33.924 63.361 21.857Z" fill="#93BBC5"/>
<path d="M23.983 28.554C30.67 37.702 33.083 47.294 29.39 49.999C25.686 52.703 17.28 47.487 10.596 38.34C3.916 29.2 1.489 19.601 5.191 16.892C8.889 14.191 17.301 19.419 23.983 28.554" fill="#25333A"/>
<path d="M19.557 29.02C23.447 34.343 24.851 39.924 22.704 41.499C20.548 43.073 15.664 40.037 11.768 34.717C7.88 29.396 6.469 23.813 8.623 22.234C10.774 20.664 15.673 23.706 19.557 29.02" fill="#D1D2D2"/>
<path d="M41.21 28.554C34.522 37.702 32.11 47.294 35.803 49.999C39.507 52.703 47.913 47.487 54.597 38.34C61.278 29.2 63.704 19.601 60.002 16.892C56.304 14.191 47.882 19.419 41.21 28.554" fill="#25333A"/>
<path d="M46.11 28.999C42.22 34.32 40.815 39.903 42.964 41.477C45.118 43.049 50.004 40.016 53.901 34.691C57.787 29.375 59.2 23.789 57.046 22.213C54.894 20.642 49.996 23.682 46.11 28.999" fill="#D1D2D2"/>
</svg>
