<svg width="64" height="64" viewBox="0 0 64 64" fill="none" xmlns="http://www.w3.org/2000/svg">
<path d="M32 1.27998C15.0336 1.27998 1.27998 15.0336 1.27998 32C1.27998 48.9664 15.0336 62.72 32 62.72C48.9664 62.72 62.72 48.9664 62.72 32C62.72 15.0336 48.9664 1.27998 32 1.27998ZM44.496 26.4448C44.5088 26.7072 44.512 26.9696 44.512 27.2256C44.512 35.2256 38.4288 44.4448 27.2992 44.4448C24.0105 44.4503 20.7903 43.5057 18.0256 41.7248C18.496 41.7824 18.9792 41.8048 19.4688 41.8048C22.304 41.8048 24.912 40.8416 26.9824 39.216C25.7207 39.1912 24.4981 38.7734 23.4851 38.0208C22.4721 37.2683 21.7192 36.2184 21.3312 35.0176C22.2373 35.1899 23.1707 35.1538 24.0608 34.912C22.6913 34.6351 21.4598 33.893 20.575 32.8117C19.6903 31.7304 19.2067 30.3763 19.2064 28.9792V28.9056C20.0224 29.3568 20.9568 29.632 21.9488 29.664C20.6649 28.8094 19.7561 27.4965 19.4081 25.994C19.0602 24.4915 19.2993 22.9128 20.0768 21.5808C21.5966 23.4496 23.492 24.9784 25.6402 26.0682C27.7884 27.158 30.1415 27.7845 32.5472 27.9072C32.2413 26.609 32.373 25.2461 32.9216 24.0304C33.4703 22.8147 34.4052 21.8144 35.581 21.1848C36.7569 20.5553 38.1077 20.3319 39.4236 20.5493C40.7396 20.7668 41.9468 21.4129 42.8576 22.3872C44.2117 22.1193 45.5103 21.6226 46.6976 20.9184C46.2463 22.3204 45.3013 23.5109 44.0384 24.2688C45.2379 24.1243 46.4092 23.8018 47.5136 23.312C46.7023 24.5276 45.6804 25.5886 44.496 26.4448V26.4448Z" fill="black"/>
</svg>
